<svg width="44" height="44" viewBox="0 0 44 44" fill="none" xmlns="http://www.w3.org/2000/svg">
<g id="clarity:administrator-line" clip-path="url(#clip0_136_633)">
<path id="Vector" d="M17.9424 18.1011C16.3078 18.1011 14.7099 17.6162 13.3509 16.7078C11.9919 15.7994 10.9329 14.5083 10.3079 12.9979C9.68294 11.4874 9.52004 9.82555 9.83983 8.22251C10.1596 6.61946 10.9477 5.14729 12.1045 3.99229C13.2612 2.83729 14.7345 2.05135 16.338 1.73393C17.9415 1.41651 19.6032 1.58188 21.1127 2.2091C22.6222 2.83632 23.9117 3.89722 24.8181 5.25754C25.7245 6.61786 26.207 8.21648 26.2046 9.85111C26.1982 12.0393 25.3252 14.1358 23.7768 15.6819C22.2284 17.228 20.1306 18.0979 17.9424 18.1011ZM17.9424 4.03333C16.7917 4.03333 15.6669 4.37454 14.7102 5.0138C13.7535 5.65307 13.0078 6.56168 12.5675 7.62474C12.1271 8.6878 12.0119 9.85756 12.2364 10.9861C12.4609 12.1146 13.015 13.1513 13.8286 13.9649C14.6422 14.7785 15.6789 15.3326 16.8074 15.5571C17.9359 15.7816 19.1057 15.6664 20.1688 15.226C21.2318 14.7857 22.1404 14.04 22.7797 13.0833C23.419 12.1266 23.7602 11.0018 23.7602 9.85111C23.7602 8.30814 23.1472 6.82836 22.0562 5.73732C20.9651 4.64627 19.4854 4.03333 17.9424 4.03333Z" fill="#5523D2"/>
<path id="Vector_2" d="M20.0688 38.7201C19.8017 38.4528 19.5956 38.1309 19.4648 37.7765C19.334 37.422 19.2815 37.0434 19.311 36.6667H4.88878V29.6023C6.62177 27.7531 8.72376 26.2884 11.0587 25.3031C13.3936 24.3178 15.9094 23.8337 18.4432 23.8823H19.3232C19.2671 23.4725 19.3063 23.0553 19.4377 22.6631C19.5692 22.2709 19.7893 21.9144 20.081 21.6212L20.2277 21.4867C19.6532 21.4867 19.0054 21.4134 18.4432 21.4134C15.4615 21.3426 12.5013 21.9353 9.77666 23.1486C7.05202 24.3619 4.63105 26.1655 2.68878 28.4289C2.53011 28.6405 2.44434 28.8978 2.44434 29.1623V36.6667C2.44434 37.315 2.70187 37.9368 3.1603 38.3952C3.61872 38.8536 4.24047 39.1112 4.88878 39.1112H20.411L20.0688 38.7201Z" fill="#5523D2"/>
<path id="Vector_3" d="M32.8413 19.91C32.9018 19.8975 32.9642 19.8975 33.0246 19.91C32.964 19.899 32.9019 19.899 32.8413 19.91Z" fill="#5523D2"/>
<path id="Vector_4" d="M41.1645 28.5021L38.72 27.7566C38.5453 27.1587 38.3077 26.581 38.0112 26.0332L39.2334 23.7599C39.2731 23.669 39.2827 23.5677 39.2607 23.4709C39.2387 23.3741 39.1863 23.287 39.1112 23.2221L37.3389 21.4499C37.2719 21.3774 37.1824 21.3295 37.0849 21.3139C36.9873 21.2984 36.8874 21.3162 36.8012 21.3644L34.5523 22.5866C33.9985 22.2753 33.4124 22.0253 32.8045 21.841L32.0589 19.3966C32.0273 19.3066 31.9673 19.2293 31.8879 19.1764C31.8086 19.1235 31.7142 19.0978 31.6189 19.1032H29.1134C29.0171 19.1021 28.9232 19.1326 28.8459 19.19C28.7686 19.2474 28.7123 19.3286 28.6856 19.421L27.94 21.8655C27.3279 22.0436 26.7376 22.2895 26.18 22.5988L23.9556 21.3766C23.8712 21.3293 23.7733 21.3121 23.6779 21.3276C23.5824 21.3432 23.4951 21.3906 23.43 21.4621L21.6212 23.2221C21.5541 23.2928 21.5109 23.3827 21.4978 23.4792C21.4846 23.5757 21.5021 23.6739 21.5478 23.7599L22.77 25.9844C22.4468 26.5353 22.1884 27.1218 22 27.7321L19.5556 28.4655C19.4631 28.4922 19.382 28.5485 19.3246 28.6258C19.2672 28.703 19.2367 28.797 19.2378 28.8932V31.3988C19.245 31.4871 19.2795 31.5709 19.3364 31.6388C19.3933 31.7067 19.4699 31.7552 19.5556 31.7777L22 32.5232C22.1807 33.1228 22.4266 33.7007 22.7334 34.2466L21.5112 36.581C21.4645 36.6647 21.4464 36.7612 21.4597 36.8561C21.4729 36.951 21.5167 37.0389 21.5845 37.1066L23.3567 38.8788C23.4259 38.9479 23.5152 38.9933 23.6117 39.0087C23.7083 39.024 23.8073 39.0085 23.8945 38.9644L26.18 37.7421C26.724 38.0347 27.2976 38.2682 27.8912 38.4388L28.6245 40.8832C28.6546 40.9737 28.7117 41.0527 28.7883 41.1096C28.8648 41.1664 28.957 41.1984 29.0523 41.201H31.5578C31.6536 41.2002 31.7466 41.1689 31.8235 41.1118C31.9004 41.0547 31.9571 40.9747 31.9856 40.8832L32.7312 38.3777C33.3169 38.207 33.8824 37.9734 34.4178 37.681L36.7278 38.9032C36.8127 38.9484 36.9101 38.9644 37.005 38.949C37.0999 38.9335 37.1872 38.8874 37.2534 38.8177L39.1112 37.1555C39.1611 37.0837 39.1879 36.9984 39.1879 36.911C39.1879 36.8236 39.1611 36.7383 39.1112 36.6666L37.8889 34.3688C38.1856 33.8296 38.4233 33.2601 38.5978 32.6699L41.0423 31.9244C41.1347 31.8976 41.2159 31.8413 41.2733 31.764C41.3307 31.6868 41.3612 31.5928 41.36 31.4966V28.9299C41.3713 28.8474 41.3588 28.7634 41.3242 28.6877C41.2896 28.612 41.2342 28.5476 41.1645 28.5021ZM30.3723 34.2221C29.5638 34.2246 28.7729 33.9869 28.0997 33.5392C27.4265 33.0916 26.9014 32.4542 26.5909 31.7078C26.2804 30.9613 26.1986 30.1395 26.3557 29.3465C26.5128 28.5535 26.9019 27.825 27.4735 27.2534C28.0451 26.6817 28.7736 26.2927 29.5667 26.1356C30.3597 25.9784 31.1815 26.0603 31.9279 26.3708C32.6743 26.6813 33.3118 27.2064 33.7594 27.8796C34.207 28.5528 34.4447 29.3437 34.4423 30.1521C34.439 31.2306 34.0092 32.2639 33.2466 33.0265C32.4841 33.7891 31.4507 34.2189 30.3723 34.2221Z" fill="#5523D2"/>
</g>
<defs>
<clipPath id="clip0_136_633">
<rect width="44" height="44" fill="white"/>
</clipPath>
</defs>
</svg>
