<svg width="44" height="44" viewBox="0 0 44 44" fill="none" xmlns="http://www.w3.org/2000/svg">
<g id="clarity:administrator-line" clip-path="url(#clip0_112_1278)">
<path id="Vector" d="M17.9424 18.1011C16.3078 18.1011 14.7099 17.6162 13.3509 16.7078C11.9919 15.7994 10.9329 14.5083 10.3079 12.9979C9.68294 11.4874 9.52004 9.82555 9.83983 8.22251C10.1596 6.61946 10.9477 5.14729 12.1045 3.99229C13.2612 2.83729 14.7345 2.05135 16.338 1.73393C17.9415 1.41651 19.6032 1.58188 21.1127 2.2091C22.6222 2.83632 23.9117 3.89722 24.8181 5.25754C25.7245 6.61786 26.207 8.21648 26.2046 9.85111C26.1982 12.0393 25.3252 14.1358 23.7768 15.6819C22.2284 17.228 20.1306 18.0979 17.9424 18.1011ZM17.9424 4.03333C16.7917 4.03333 15.6669 4.37454 14.7102 5.0138C13.7535 5.65307 13.0078 6.56168 12.5675 7.62474C12.1271 8.6878 12.0119 9.85756 12.2364 10.9861C12.4609 12.1146 13.015 13.1513 13.8286 13.9649C14.6422 14.7785 15.6789 15.3326 16.8074 15.5571C17.9359 15.7816 19.1057 15.6664 20.1688 15.226C21.2318 14.7857 22.1404 14.04 22.7797 13.0833C23.419 12.1266 23.7602 11.0018 23.7602 9.85111C23.7602 8.30814 23.1472 6.82836 22.0562 5.73732C20.9651 4.64627 19.4854 4.03333 17.9424 4.03333Z" fill="#909090"/>
<path id="Vector_2" d="M20.0688 38.7201C19.8017 38.4528 19.5956 38.1309 19.4648 37.7765C19.334 37.422 19.2815 37.0434 19.311 36.6667H4.88878V29.6023C6.62177 27.7531 8.72376 26.2884 11.0587 25.3031C13.3936 24.3178 15.9094 23.8337 18.4432 23.8823H19.3232C19.2671 23.4725 19.3063 23.0553 19.4377 22.6631C19.5692 22.2709 19.7893 21.9144 20.081 21.6212L20.2277 21.4867C19.6532 21.4867 19.0054 21.4134 18.4432 21.4134C15.4615 21.3426 12.5013 21.9353 9.77666 23.1486C7.05202 24.3619 4.63105 26.1655 2.68878 28.4289C2.53011 28.6405 2.44434 28.8978 2.44434 29.1623V36.6667C2.44434 37.315 2.70187 37.9368 3.1603 38.3952C3.61872 38.8536 4.24047 39.1112 4.88878 39.1112H20.411L20.0688 38.7201Z" fill="#909090"/>
<path id="Vector_3" d="M32.8413 19.91C32.9018 19.8975 32.9642 19.8975 33.0246 19.91C32.964 19.899 32.9019 19.899 32.8413 19.91Z" fill="#909090"/>
<path id="Vector_4" d="M41.1645 28.5023L38.72 27.7567C38.5453 27.1588 38.3077 26.5811 38.0112 26.0334L39.2334 23.76C39.2731 23.6691 39.2827 23.5678 39.2607 23.471C39.2387 23.3743 39.1863 23.2871 39.1112 23.2223L37.3389 21.45C37.2719 21.3775 37.1824 21.3296 37.0849 21.3141C36.9873 21.2986 36.8874 21.3163 36.8012 21.3645L34.5523 22.5867C33.9985 22.2754 33.4124 22.0254 32.8045 21.8411L32.0589 19.3967C32.0273 19.3067 31.9673 19.2295 31.8879 19.1766C31.8086 19.1237 31.7142 19.098 31.6189 19.1034H29.1134C29.0171 19.1023 28.9232 19.1327 28.8459 19.1901C28.7686 19.2475 28.7123 19.3287 28.6856 19.4211L27.94 21.8656C27.3279 22.0437 26.7376 22.2897 26.18 22.5989L23.9556 21.3767C23.8712 21.3295 23.7733 21.3122 23.6779 21.3277C23.5824 21.3433 23.4951 21.3907 23.43 21.4623L21.6212 23.2223C21.5541 23.2929 21.5109 23.3828 21.4978 23.4793C21.4846 23.5758 21.5021 23.674 21.5478 23.76L22.77 25.9845C22.4468 26.5354 22.1884 27.1219 22 27.7323L19.5556 28.4656C19.4631 28.4923 19.382 28.5486 19.3246 28.6259C19.2672 28.7032 19.2367 28.7971 19.2378 28.8934V31.3989C19.245 31.4872 19.2795 31.5711 19.3364 31.6389C19.3933 31.7068 19.4699 31.7553 19.5556 31.7778L22 32.5234C22.1807 33.1229 22.4266 33.7008 22.7334 34.2467L21.5112 36.5811C21.4645 36.6648 21.4464 36.7614 21.4597 36.8562C21.4729 36.9511 21.5167 37.039 21.5845 37.1067L23.3567 38.8789C23.4259 38.948 23.5152 38.9934 23.6117 39.0088C23.7083 39.0241 23.8073 39.0086 23.8945 38.9645L26.18 37.7423C26.724 38.0348 27.2976 38.2683 27.8912 38.4389L28.6245 40.8834C28.6546 40.9738 28.7117 41.0529 28.7883 41.1097C28.8648 41.1666 28.957 41.1985 29.0523 41.2011H31.5578C31.6536 41.2003 31.7466 41.1691 31.8235 41.112C31.9004 41.0548 31.9571 40.9748 31.9856 40.8834L32.7312 38.3778C33.3169 38.2071 33.8824 37.9735 34.4178 37.6811L36.7278 38.9034C36.8127 38.9485 36.9101 38.9646 37.005 38.9491C37.0999 38.9337 37.1872 38.8875 37.2534 38.8178L39.1112 37.1556C39.1611 37.0839 39.1879 36.9986 39.1879 36.9111C39.1879 36.8237 39.1611 36.7384 39.1112 36.6667L37.8889 34.3689C38.1856 33.8298 38.4233 33.2602 38.5978 32.67L41.0423 31.9245C41.1347 31.8977 41.2159 31.8414 41.2733 31.7642C41.3307 31.6869 41.3612 31.5929 41.36 31.4967V28.93C41.3713 28.8475 41.3588 28.7635 41.3242 28.6878C41.2896 28.6121 41.2342 28.5478 41.1645 28.5023ZM30.3723 34.2223C29.5638 34.2247 28.7729 33.987 28.0997 33.5394C27.4265 33.0917 26.9014 32.4543 26.5909 31.7079C26.2804 30.9615 26.1986 30.1397 26.3557 29.3466C26.5128 28.5536 26.9019 27.8251 27.4735 27.2535C28.0451 26.6818 28.7736 26.2928 29.5667 26.1357C30.3597 25.9785 31.1815 26.0604 31.9279 26.3709C32.6743 26.6814 33.3118 27.2065 33.7594 27.8797C34.207 28.5529 34.4447 29.3438 34.4423 30.1523C34.439 31.2307 34.0092 32.264 33.2466 33.0266C32.4841 33.7892 31.4507 34.219 30.3723 34.2223Z" fill="#909090"/>
</g>
<defs>
<clipPath id="clip0_112_1278">
<rect width="44" height="44" fill="white"/>
</clipPath>
</defs>
</svg>
