<svg width="20" height="20" viewBox="0 0 20 20" fill="none" xmlns="http://www.w3.org/2000/svg">
<g id="fluent:calendar-16-regular">
<path id="Vector" d="M6.56 11.2463C6.80814 11.2463 7.04612 11.1477 7.22159 10.9722C7.39705 10.7967 7.49563 10.5588 7.49563 10.3106C7.49563 10.0625 7.39705 9.8245 7.22159 9.64904C7.04612 9.47357 6.80814 9.375 6.56 9.375C6.31186 9.375 6.07388 9.47357 5.89841 9.64904C5.72295 9.8245 5.62437 10.0625 5.62437 10.3106C5.62437 10.5588 5.72295 10.7967 5.89841 10.9722C6.07388 11.1477 6.31186 11.2463 6.56 11.2463ZM7.49625 13.4362C7.49625 13.6844 7.39768 13.9224 7.22221 14.0978C7.04675 14.2733 6.80877 14.3719 6.56063 14.3719C6.31248 14.3719 6.0745 14.2733 5.89904 14.0978C5.72357 13.9224 5.625 13.6844 5.625 13.4362C5.625 13.1881 5.72357 12.9501 5.89904 12.7747C6.0745 12.5992 6.31248 12.5006 6.56063 12.5006C6.80877 12.5006 7.04675 12.5992 7.22221 12.7747C7.39768 12.9501 7.49625 13.1881 7.49625 13.4362ZM10 11.245C10.248 11.245 10.4858 11.1465 10.6611 10.9711C10.8365 10.7958 10.935 10.558 10.935 10.31C10.935 10.062 10.8365 9.8242 10.6611 9.64886C10.4858 9.47351 10.248 9.375 10 9.375C9.75186 9.375 9.51388 9.47357 9.33841 9.64904C9.16295 9.8245 9.06437 10.0625 9.06437 10.3106C9.06437 10.5588 9.16295 10.7967 9.33841 10.9722C9.51388 11.1477 9.75186 11.245 10 11.245ZM10.9362 13.435C10.9362 13.6831 10.8377 13.9211 10.6622 14.0966C10.4867 14.2721 10.2488 14.3706 10.0006 14.3706C9.75248 14.3706 9.5145 14.2721 9.33904 14.0966C9.16357 13.9211 9.065 13.6831 9.065 13.435C9.065 13.1869 9.16357 12.9489 9.33904 12.7734C9.5145 12.5979 9.75248 12.4994 10.0006 12.4994C10.2488 12.4994 10.4867 12.5979 10.6622 12.7734C10.8377 12.9489 10.9362 13.1869 10.9362 13.435ZM13.4362 11.245C13.6844 11.245 13.9224 11.1464 14.0978 10.971C14.2733 10.7955 14.3719 10.5575 14.3719 10.3094C14.3719 10.0612 14.2733 9.82325 14.0978 9.64779C13.9224 9.47232 13.6844 9.37375 13.4362 9.37375C13.1881 9.37375 12.9501 9.47232 12.7747 9.64779C12.5992 9.82325 12.5006 10.0612 12.5006 10.3094C12.5006 10.5575 12.5992 10.7955 12.7747 10.971C12.9501 11.1464 13.1881 11.245 13.4362 11.245ZM17.5 5.625C17.5 4.7962 17.1708 4.00134 16.5847 3.41529C15.9987 2.82924 15.2038 2.5 14.375 2.5H5.625C4.7962 2.5 4.00134 2.82924 3.41529 3.41529C2.82924 4.00134 2.5 4.7962 2.5 5.625V14.375C2.5 15.2038 2.82924 15.9987 3.41529 16.5847C4.00134 17.1708 4.7962 17.5 5.625 17.5H14.375C15.2038 17.5 15.9987 17.1708 16.5847 16.5847C17.1708 15.9987 17.5 15.2038 17.5 14.375V5.625ZM3.75 7.5H16.25V14.375C16.25 14.8723 16.0525 15.3492 15.7008 15.7008C15.3492 16.0525 14.8723 16.25 14.375 16.25H5.625C5.12772 16.25 4.65081 16.0525 4.29917 15.7008C3.94754 15.3492 3.75 14.8723 3.75 14.375V7.5ZM5.625 3.75H14.375C14.8723 3.75 15.3492 3.94754 15.7008 4.29917C16.0525 4.65081 16.25 5.12772 16.25 5.625V6.25H3.75V5.625C3.75 5.12772 3.94754 4.65081 4.29917 4.29917C4.65081 3.94754 5.12772 3.75 5.625 3.75Z" fill="#6B7280"/>
</g>
</svg>
