<svg width="20" height="20" viewBox="0 0 20 20" fill="none" xmlns="http://www.w3.org/2000/svg">
<g id="solar:camera-outline">
<path id="Vector" fill-rule="evenodd" clip-rule="evenodd" d="M6.3315 3.73917C6.554 2.6475 7.52567 1.875 8.63817 1.875H11.3615C12.474 1.875 13.4448 2.6475 13.6682 3.73917C13.6928 3.85938 13.7571 3.96781 13.8508 4.04701C13.9446 4.12622 14.0622 4.17159 14.1848 4.17583H14.2123C15.3815 4.2275 16.2798 4.37083 17.0298 4.86333C17.5023 5.17333 17.909 5.57167 18.2257 6.0375C18.6198 6.61583 18.7932 7.28083 18.8765 8.08417C18.9582 8.87 18.9582 9.85417 18.9582 11.1008V11.1717C18.9582 12.4183 18.9582 13.4033 18.8765 14.1883C18.7932 14.9917 18.6198 15.6567 18.2257 16.2358C17.908 16.7019 17.5017 17.1009 17.0298 17.41C16.444 17.7942 15.7715 17.9642 14.9565 18.045C14.1582 18.125 13.1573 18.125 11.8857 18.125H8.114C6.84234 18.125 5.8415 18.125 5.04317 18.045C4.22817 17.9642 3.55567 17.795 2.96984 17.41C2.49793 17.1007 2.09158 16.7014 1.774 16.235C1.37984 15.6567 1.2065 14.9917 1.12317 14.1883C1.0415 13.4033 1.0415 12.4183 1.0415 11.1717V11.1008C1.0415 9.85417 1.0415 8.87 1.12317 8.08417C1.2065 7.28083 1.37984 6.61583 1.774 6.0375C2.09158 5.5711 2.49793 5.17183 2.96984 4.8625C3.71984 4.37083 4.61817 4.2275 5.78734 4.17667L5.8015 4.17583H5.81484C5.93747 4.17159 6.05511 4.12622 6.14883 4.04701C6.24254 3.96781 6.30689 3.85938 6.3315 3.73917ZM8.63817 3.125C8.10484 3.125 7.65734 3.49417 7.5565 3.98833C7.394 4.78833 6.684 5.41833 5.82984 5.42583C4.7065 5.47583 4.10484 5.61333 3.65484 5.90833C3.32057 6.12769 3.03262 6.41054 2.80734 6.74083C2.57734 7.07833 2.439 7.51083 2.36567 8.21333C2.29234 8.92667 2.2915 9.84667 2.2915 11.1367C2.2915 12.4267 2.2915 13.3458 2.3665 14.0592C2.439 14.7617 2.57734 15.1942 2.80817 15.5325C3.0315 15.8608 3.319 16.1442 3.65567 16.3642C4.00317 16.5925 4.44817 16.73 5.16734 16.8017C5.89567 16.8742 6.834 16.875 8.14817 16.875H11.8515C13.1648 16.875 14.1032 16.875 14.8323 16.8017C15.5515 16.73 15.9965 16.5933 16.344 16.365C16.6807 16.1442 16.969 15.8608 17.1923 15.5317C17.4223 15.1942 17.5607 14.7617 17.634 14.0592C17.7073 13.3458 17.7082 12.4258 17.7082 11.1367C17.7082 9.84667 17.7082 8.92667 17.6332 8.21333C17.5607 7.51083 17.4223 7.07833 17.1915 6.74083C16.9665 6.4101 16.6785 6.12693 16.344 5.9075C15.8957 5.61333 15.294 5.47583 14.169 5.42583C13.3157 5.4175 12.6057 4.78917 12.4432 3.98833C12.3898 3.74189 12.2531 3.52141 12.056 3.36412C11.8589 3.20683 11.6136 3.12237 11.3615 3.125H8.63817ZM9.99984 8.95833C9.50256 8.95833 9.02564 9.15588 8.67401 9.50751C8.32238 9.85914 8.12484 10.3361 8.12484 10.8333C8.12484 11.3306 8.32238 11.8075 8.67401 12.1592C9.02564 12.5108 9.50256 12.7083 9.99984 12.7083C10.4971 12.7083 10.974 12.5108 11.3257 12.1592C11.6773 11.8075 11.8748 11.3306 11.8748 10.8333C11.8748 10.3361 11.6773 9.85914 11.3257 9.50751C10.974 9.15588 10.4971 8.95833 9.99984 8.95833ZM6.87484 10.8333C6.87484 10.0045 7.20408 9.20968 7.79013 8.62362C8.37618 8.03757 9.17104 7.70833 9.99984 7.70833C10.8286 7.70833 11.6235 8.03757 12.2095 8.62362C12.7956 9.20968 13.1248 10.0045 13.1248 10.8333C13.1248 11.6621 12.7956 12.457 12.2095 13.043C11.6235 13.6291 10.8286 13.9583 9.99984 13.9583C9.17104 13.9583 8.37618 13.6291 7.79013 13.043C7.20408 12.457 6.87484 11.6621 6.87484 10.8333ZM14.3748 8.33333C14.3748 8.16757 14.4407 8.0086 14.5579 7.89139C14.6751 7.77418 14.8341 7.70833 14.9998 7.70833H15.8332C15.9989 7.70833 16.1579 7.77418 16.2751 7.89139C16.3923 8.0086 16.4582 8.16757 16.4582 8.33333C16.4582 8.49909 16.3923 8.65806 16.2751 8.77527C16.1579 8.89248 15.9989 8.95833 15.8332 8.95833H14.9998C14.8341 8.95833 14.6751 8.89248 14.5579 8.77527C14.4407 8.65806 14.3748 8.49909 14.3748 8.33333Z" fill="#C0C0C0"/>
</g>
</svg>
