<svg width="19" height="17" viewBox="0 0 19 17" fill="none" xmlns="http://www.w3.org/2000/svg">
<path id="Vector" d="M11.8701 8.5L18.5041 2.56432C18.8189 2.28311 18.996 1.90151 18.9964 1.50347C18.9968 1.10543 18.8205 0.723548 18.5062 0.441842C18.1919 0.160135 17.7654 0.0016772 17.3205 0.00132568C16.8757 0.000974155 16.4488 0.158758 16.134 0.439967L9.5 6.37565L2.866 0.439967C2.55115 0.158261 2.12413 0 1.67886 0C1.2336 0 0.806576 0.158261 0.491728 0.439967C0.17688 0.721674 0 1.10375 0 1.50214C0 1.90054 0.17688 2.28261 0.491728 2.56432L7.12573 8.5L0.491728 14.4357C0.17688 14.7174 0 15.0995 0 15.4979C0 15.8963 0.17688 16.2783 0.491728 16.56C0.806576 16.8417 1.2336 17 1.67886 17C2.12413 17 2.55115 16.8417 2.866 16.56L9.5 10.6244L16.134 16.56C16.4488 16.8417 16.8759 17 17.3211 17C17.7664 17 18.1934 16.8417 18.5083 16.56C18.8231 16.2783 19 15.8963 19 15.4979C19 15.0995 18.8231 14.7174 18.5083 14.4357L11.8701 8.5Z" fill="white"/>
</svg>
