<svg width="44" height="44" viewBox="0 0 44 44" fill="none" xmlns="http://www.w3.org/2000/svg">
<g id="fluent:people-team-20-regular">
<path id="Vector" d="M22 6.6C21.1248 6.6 20.2854 6.94768 19.6666 7.56655C19.0477 8.18542 18.7 9.02479 18.7 9.9C18.7 10.7752 19.0477 11.6146 19.6666 12.2335C20.2854 12.8523 21.1248 13.2 22 13.2C22.8752 13.2 23.7146 12.8523 24.3335 12.2335C24.9523 11.6146 25.3 10.7752 25.3 9.9C25.3 9.02479 24.9523 8.18542 24.3335 7.56655C23.7146 6.94768 22.8752 6.6 22 6.6ZM16.5 9.9C16.5 8.44131 17.0795 7.04236 18.1109 6.01091C19.1424 4.97946 20.5413 4.4 22 4.4C23.4587 4.4 24.8577 4.97946 25.8891 6.01091C26.9206 7.04236 27.5 8.44131 27.5 9.9C27.5 11.3587 26.9206 12.7576 25.8891 13.7891C24.8577 14.8205 23.4587 15.4 22 15.4C20.5413 15.4 19.1424 14.8205 18.1109 13.7891C17.0795 12.7576 16.5 11.3587 16.5 9.9ZM34.1 8.8C33.5165 8.8 32.957 9.03179 32.5444 9.44437C32.1318 9.85695 31.9 10.4165 31.9 11C31.9 11.5835 32.1318 12.1431 32.5444 12.5556C32.957 12.9682 33.5165 13.2 34.1 13.2C34.6835 13.2 35.2431 12.9682 35.6557 12.5556C36.0682 12.1431 36.3 11.5835 36.3 11C36.3 10.4165 36.0682 9.85695 35.6557 9.44437C35.2431 9.03179 34.6835 8.8 34.1 8.8ZM29.7 11C29.7 9.83305 30.1636 8.71389 30.9888 7.88873C31.8139 7.06357 32.9331 6.6 34.1 6.6C35.267 6.6 36.3861 7.06357 37.2113 7.88873C38.0365 8.71389 38.5 9.83305 38.5 11C38.5 12.167 38.0365 13.2861 37.2113 14.1113C36.3861 14.9364 35.267 15.4 34.1 15.4C32.9331 15.4 31.8139 14.9364 30.9888 14.1113C30.1636 13.2861 29.7 12.167 29.7 11ZM7.70002 11C7.70002 10.4165 7.93181 9.85695 8.34439 9.44437C8.75697 9.03179 9.31655 8.8 9.90002 8.8C10.4835 8.8 11.0431 9.03179 11.4557 9.44437C11.8682 9.85695 12.1 10.4165 12.1 11C12.1 11.5835 11.8682 12.1431 11.4557 12.5556C11.0431 12.9682 10.4835 13.2 9.90002 13.2C9.31655 13.2 8.75697 12.9682 8.34439 12.5556C7.93181 12.1431 7.70002 11.5835 7.70002 11ZM9.90002 6.6C8.73307 6.6 7.61391 7.06357 6.78875 7.88873C5.96359 8.71389 5.50002 9.83305 5.50002 11C5.50002 12.167 5.96359 13.2861 6.78875 14.1113C7.61391 14.9364 8.73307 15.4 9.90002 15.4C11.067 15.4 12.1861 14.9364 13.0113 14.1113C13.8365 13.2861 14.3 12.167 14.3 11C14.3 9.83305 13.8365 8.71389 13.0113 7.88873C12.1861 7.06357 11.067 6.6 9.90002 6.6ZM11.22 32.9956C10.6243 33.0254 10.0288 32.9338 9.46961 32.7264C8.91042 32.5189 8.39924 32.1999 7.96713 31.7888C7.53503 31.3777 7.19102 30.883 6.956 30.3349C6.72099 29.7867 6.59987 29.1964 6.60002 28.6V20.35C6.60002 20.2041 6.65797 20.0642 6.76112 19.9611C6.86426 19.8579 7.00416 19.8 7.15002 19.8H11.0308C11.1188 18.9926 11.4048 18.2424 11.8338 17.6H7.15002C5.63202 17.6 4.40002 18.832 4.40002 20.35V28.6C4.39992 29.5419 4.60141 30.4728 4.99095 31.3304C5.38049 32.1879 5.94905 32.9521 6.65845 33.5717C7.36784 34.1913 8.20162 34.6518 9.10377 34.9224C10.0059 35.1931 10.9555 35.2674 11.8888 35.1406C11.5927 34.4505 11.3686 33.7317 11.22 32.9956ZM32.1112 35.1406C33.0445 35.2674 33.9941 35.1931 34.8963 34.9224C35.7984 34.6518 36.6322 34.1913 37.3416 33.5717C38.051 32.9521 38.6196 32.1879 39.0091 31.3304C39.3986 30.4728 39.6001 29.5419 39.6 28.6V20.35C39.6 18.832 38.368 17.6 36.85 17.6H32.1662C32.5974 18.2424 32.8812 18.9926 32.9692 19.8H36.85C36.9959 19.8 37.1358 19.8579 37.2389 19.9611C37.3421 20.0642 37.4 20.2041 37.4 20.35V28.6C37.4002 29.1964 37.2791 29.7867 37.044 30.3349C36.809 30.883 36.465 31.3777 36.0329 31.7888C35.6008 32.1999 35.0896 32.5189 34.5304 32.7264C33.9712 32.9338 33.3757 33.0254 32.78 32.9956C32.6314 33.7317 32.4073 34.4505 32.1112 35.1406ZM15.95 17.6C14.432 17.6 13.2 18.832 13.2 20.35V30.8C13.2 33.1339 14.1272 35.3722 15.7775 37.0225C17.4278 38.6729 19.6661 39.6 22 39.6C24.3339 39.6 26.5722 38.6729 28.2226 37.0225C29.8729 35.3722 30.8 33.1339 30.8 30.8V20.35C30.8 18.832 29.568 17.6 28.05 17.6H15.95ZM15.4 20.35C15.4 20.2041 15.458 20.0642 15.5611 19.9611C15.6643 19.8579 15.8042 19.8 15.95 19.8H28.05C28.1959 19.8 28.3358 19.8579 28.4389 19.9611C28.5421 20.0642 28.6 20.2041 28.6 20.35V30.8C28.6 32.5504 27.9047 34.2292 26.6669 35.4669C25.4292 36.7046 23.7505 37.4 22 37.4C20.2496 37.4 18.5709 36.7046 17.3331 35.4669C16.0954 34.2292 15.4 32.5504 15.4 30.8V20.35Z" fill="#5523D2"/>
</g>
</svg>
