<svg width="48" height="48" viewBox="0 0 48 48" fill="none" xmlns="http://www.w3.org/2000/svg">
<g id="healthicons:ui-menu-grid-outline">
<path id="Vector" fill-rule="evenodd" clip-rule="evenodd" d="M14 8H8V14H14V8ZM8 6C7.46957 6 6.96086 6.21071 6.58579 6.58579C6.21071 6.96086 6 7.46957 6 8V14C6 14.5304 6.21071 15.0391 6.58579 15.4142C6.96086 15.7893 7.46957 16 8 16H14C14.5304 16 15.0391 15.7893 15.4142 15.4142C15.7893 15.0391 16 14.5304 16 14V8C16 7.46957 15.7893 6.96086 15.4142 6.58579C15.0391 6.21071 14.5304 6 14 6H8ZM14 21H8V27H14V21ZM8 19C7.46957 19 6.96086 19.2107 6.58579 19.5858C6.21071 19.9609 6 20.4696 6 21V27C6 27.5304 6.21071 28.0391 6.58579 28.4142C6.96086 28.7893 7.46957 29 8 29H14C14.5304 29 15.0391 28.7893 15.4142 28.4142C15.7893 28.0391 16 27.5304 16 27V21C16 20.4696 15.7893 19.9609 15.4142 19.5858C15.0391 19.2107 14.5304 19 14 19H8ZM14 34H8V40H14V34ZM8 32C7.46957 32 6.96086 32.2107 6.58579 32.5858C6.21071 32.9609 6 33.4696 6 34V40C6 40.5304 6.21071 41.0391 6.58579 41.4142C6.96086 41.7893 7.46957 42 8 42H14C14.5304 42 15.0391 41.7893 15.4142 41.4142C15.7893 41.0391 16 40.5304 16 40V34C16 33.4696 15.7893 32.9609 15.4142 32.5858C15.0391 32.2107 14.5304 32 14 32H8ZM27 8H21V14H27V8ZM21 6C20.4696 6 19.9609 6.21071 19.5858 6.58579C19.2107 6.96086 19 7.46957 19 8V14C19 14.5304 19.2107 15.0391 19.5858 15.4142C19.9609 15.7893 20.4696 16 21 16H27C27.5304 16 28.0391 15.7893 28.4142 15.4142C28.7893 15.0391 29 14.5304 29 14V8C29 7.46957 28.7893 6.96086 28.4142 6.58579C28.0391 6.21071 27.5304 6 27 6H21ZM27 21H21V27H27V21ZM21 19C20.4696 19 19.9609 19.2107 19.5858 19.5858C19.2107 19.9609 19 20.4696 19 21V27C19 27.5304 19.2107 28.0391 19.5858 28.4142C19.9609 28.7893 20.4696 29 21 29H27C27.5304 29 28.0391 28.7893 28.4142 28.4142C28.7893 28.0391 29 27.5304 29 27V21C29 20.4696 28.7893 19.9609 28.4142 19.5858C28.0391 19.2107 27.5304 19 27 19H21ZM27 34H21V40H27V34ZM21 32C20.4696 32 19.9609 32.2107 19.5858 32.5858C19.2107 32.9609 19 33.4696 19 34V40C19 40.5304 19.2107 41.0391 19.5858 41.4142C19.9609 41.7893 20.4696 42 21 42H27C27.5304 42 28.0391 41.7893 28.4142 41.4142C28.7893 41.0391 29 40.5304 29 40V34C29 33.4696 28.7893 32.9609 28.4142 32.5858C28.0391 32.2107 27.5304 32 27 32H21ZM40 8H34V14H40V8ZM34 6C33.4696 6 32.9609 6.21071 32.5858 6.58579C32.2107 6.96086 32 7.46957 32 8V14C32 14.5304 32.2107 15.0391 32.5858 15.4142C32.9609 15.7893 33.4696 16 34 16H40C40.5304 16 41.0391 15.7893 41.4142 15.4142C41.7893 15.0391 42 14.5304 42 14V8C42 7.46957 41.7893 6.96086 41.4142 6.58579C41.0391 6.21071 40.5304 6 40 6H34ZM40 21H34V27H40V21ZM34 19C33.4696 19 32.9609 19.2107 32.5858 19.5858C32.2107 19.9609 32 20.4696 32 21V27C32 27.5304 32.2107 28.0391 32.5858 28.4142C32.9609 28.7893 33.4696 29 34 29H40C40.5304 29 41.0391 28.7893 41.4142 28.4142C41.7893 28.0391 42 27.5304 42 27V21C42 20.4696 41.7893 19.9609 41.4142 19.5858C41.0391 19.2107 40.5304 19 40 19H34ZM40 34H34V40H40V34ZM34 32C33.4696 32 32.9609 32.2107 32.5858 32.5858C32.2107 32.9609 32 33.4696 32 34V40C32 40.5304 32.2107 41.0391 32.5858 41.4142C32.9609 41.7893 33.4696 42 34 42H40C40.5304 42 41.0391 41.7893 41.4142 41.4142C41.7893 41.0391 42 40.5304 42 40V34C42 33.4696 41.7893 32.9609 41.4142 32.5858C41.0391 32.2107 40.5304 32 40 32H34Z" fill="#5523D2"/>
</g>
</svg>
