<svg width="24" height="24" viewBox="0 0 24 24" fill="none" xmlns="http://www.w3.org/2000/svg">
<g id="vuesax/outline/eye-slash">
<g id="eye-slash">
<path id="Vector" d="M9.46992 15.2799C9.27992 15.2799 9.08992 15.2099 8.93992 15.0599C8.11992 14.2399 7.66992 13.1499 7.66992 11.9999C7.66992 9.60992 9.60992 7.66992 11.9999 7.66992C13.1499 7.66992 14.2399 8.11992 15.0599 8.93992C15.1999 9.07992 15.2799 9.26992 15.2799 9.46992C15.2799 9.66992 15.1999 9.85992 15.0599 9.99992L9.99992 15.0599C9.84992 15.2099 9.65992 15.2799 9.46992 15.2799ZM11.9999 9.16992C10.4399 9.16992 9.16992 10.4399 9.16992 11.9999C9.16992 12.4999 9.29992 12.9799 9.53992 13.3999L13.3999 9.53992C12.9799 9.29992 12.4999 9.16992 11.9999 9.16992Z" fill="#292D32"/>
<path id="Vector_2" d="M5.59984 18.5105C5.42984 18.5105 5.24984 18.4505 5.10984 18.3305C4.03984 17.4205 3.07984 16.3005 2.25984 15.0005C1.19984 13.3505 1.19984 10.6605 2.25984 9.00047C4.69984 5.18047 8.24984 2.98047 11.9998 2.98047C14.1998 2.98047 16.3698 3.74047 18.2698 5.17047C18.5998 5.42047 18.6698 5.89047 18.4198 6.22047C18.1698 6.55047 17.6998 6.62047 17.3698 6.37047C15.7298 5.13047 13.8698 4.48047 11.9998 4.48047C8.76984 4.48047 5.67984 6.42047 3.51984 9.81047C2.76984 10.9805 2.76984 13.0205 3.51984 14.1905C4.26984 15.3605 5.12984 16.3705 6.07984 17.1905C6.38984 17.4605 6.42984 17.9305 6.15984 18.2505C6.01984 18.4205 5.80984 18.5105 5.59984 18.5105Z" fill="#292D32"/>
<path id="Vector_3" d="M12.0006 21.0205C10.6706 21.0205 9.37055 20.7505 8.12055 20.2205C7.74055 20.0605 7.56055 19.6205 7.72055 19.2405C7.88055 18.8605 8.32055 18.6805 8.70055 18.8405C9.76055 19.2905 10.8706 19.5205 11.9906 19.5205C15.2206 19.5205 18.3106 17.5805 20.4706 14.1905C21.2206 13.0205 21.2206 10.9805 20.4706 9.81049C20.1606 9.32049 19.8205 8.85049 19.4606 8.41049C19.2006 8.09049 19.2506 7.62049 19.5706 7.35049C19.8906 7.09049 20.3605 7.13049 20.6306 7.46049C21.0206 7.94049 21.4006 8.46049 21.7406 9.00049C22.8006 10.6505 22.8006 13.3405 21.7406 15.0005C19.3006 18.8205 15.7506 21.0205 12.0006 21.0205Z" fill="#292D32"/>
<path id="Vector_4" d="M12.6896 16.2703C12.3396 16.2703 12.0196 16.0203 11.9496 15.6603C11.8696 15.2503 12.1396 14.8603 12.5496 14.7903C13.6496 14.5903 14.5696 13.6703 14.7696 12.5703C14.8496 12.1603 15.2396 11.9003 15.6496 11.9703C16.0596 12.0503 16.3296 12.4403 16.2496 12.8503C15.9296 14.5803 14.5496 15.9503 12.8296 16.2703C12.7796 16.2603 12.7396 16.2703 12.6896 16.2703Z" fill="#292D32"/>
<path id="Vector_5" d="M1.99945 22.7497C1.80945 22.7497 1.61945 22.6797 1.46945 22.5297C1.17945 22.2397 1.17945 21.7597 1.46945 21.4697L8.93945 13.9997C9.22945 13.7097 9.70945 13.7097 9.99945 13.9997C10.2895 14.2897 10.2895 14.7697 9.99945 15.0597L2.52945 22.5297C2.37945 22.6797 2.18945 22.7497 1.99945 22.7497Z" fill="#292D32"/>
<path id="Vector_6" d="M14.5307 10.2204C14.3407 10.2204 14.1507 10.1504 14.0007 10.0004C13.7107 9.71043 13.7107 9.23043 14.0007 8.94043L21.4707 1.47043C21.7607 1.18043 22.2407 1.18043 22.5307 1.47043C22.8207 1.76043 22.8207 2.24043 22.5307 2.53043L15.0607 10.0004C14.9107 10.1504 14.7207 10.2204 14.5307 10.2204Z" fill="#292D32"/>
</g>
</g>
</svg>
