<svg width="37" height="37" viewBox="0 0 37 37" fill="none" xmlns="http://www.w3.org/2000/svg">
<g id="ri:customer-service-2-line">
<path id="Vector" d="M30.7376 12.3332H32.3748C33.1926 12.3332 33.9768 12.6581 34.5551 13.2363C35.1333 13.8145 35.4582 14.5988 35.4582 15.4166V21.5832C35.4582 22.401 35.1333 23.1852 34.5551 23.7635C33.9768 24.3417 33.1926 24.6666 32.3748 24.6666H30.7376C30.3617 27.6471 28.9111 30.388 26.6579 32.3749C24.4048 34.3618 21.5039 35.4582 18.4998 35.4582V32.3749C20.9531 32.3749 23.3059 31.4003 25.0406 29.6656C26.7753 27.9309 27.7498 25.5781 27.7498 23.1249V13.8749C27.7498 11.4216 26.7753 9.06886 25.0406 7.33415C23.3059 5.59944 20.9531 4.62489 18.4998 4.62489C16.0466 4.62489 13.6938 5.59944 11.9591 7.33415C10.2244 9.06886 9.24984 11.4216 9.24984 13.8749V24.6666H4.62484C3.80709 24.6666 3.02283 24.3417 2.44459 23.7635C1.86635 23.1852 1.5415 22.401 1.5415 21.5832V15.4166C1.5415 14.5988 1.86635 13.8145 2.44459 13.2363C3.02283 12.6581 3.80709 12.3332 4.62484 12.3332H6.26209C6.6383 9.35302 8.08909 6.61252 10.3422 4.62593C12.5954 2.63934 15.496 1.54321 18.4998 1.54321C21.5037 1.54321 24.4043 2.63934 26.6575 4.62593C28.9106 6.61252 30.3614 9.35302 30.7376 12.3332ZM4.62484 15.4166V21.5832H6.1665V15.4166H4.62484ZM30.8332 15.4166V21.5832H32.3748V15.4166H30.8332ZM11.9632 24.3351L13.5973 21.7204C15.0667 22.6409 16.766 23.1277 18.4998 23.1249C20.2336 23.1277 21.933 22.6409 23.4023 21.7204L25.0365 24.3351C23.0774 25.5625 20.8116 26.2118 18.4998 26.2082C16.188 26.2119 13.9222 25.5626 11.9632 24.3351Z" fill="#909090"/>
</g>
</svg>
