<svg width="37" height="37" viewBox="0 0 37 37" fill="none" xmlns="http://www.w3.org/2000/svg">
<g id="ri:customer-service-2-line">
<path id="Vector" d="M30.7377 12.3333H32.375C33.1927 12.3333 33.977 12.6582 34.5552 13.2364C35.1334 13.8147 35.4583 14.5989 35.4583 15.4167V21.5833C35.4583 22.4011 35.1334 23.1853 34.5552 23.7636C33.977 24.3418 33.1927 24.6667 32.375 24.6667H30.7377C30.3619 27.6472 28.9112 30.3881 26.6581 32.375C24.4049 34.3619 21.5041 35.4583 18.5 35.4583V32.375C20.9532 32.375 23.306 31.4005 25.0407 29.6657C26.7754 27.931 27.75 25.5783 27.75 23.125V13.875C27.75 11.4218 26.7754 9.06898 25.0407 7.33427C23.306 5.59956 20.9532 4.62501 18.5 4.62501C16.0467 4.62501 13.6939 5.59956 11.9592 7.33427C10.2245 9.06898 9.24996 11.4218 9.24996 13.875V24.6667H4.62496C3.80721 24.6667 3.02295 24.3418 2.44471 23.7636C1.86648 23.1853 1.54163 22.4011 1.54163 21.5833V15.4167C1.54163 14.5989 1.86648 13.8147 2.44471 13.2364C3.02295 12.6582 3.80721 12.3333 4.62496 12.3333H6.26221C6.63842 9.35314 8.08921 6.61264 10.3423 4.62605C12.5955 2.63946 15.4961 1.54333 18.5 1.54333C21.5038 1.54333 24.4044 2.63946 26.6576 4.62605C28.9107 6.61264 30.3615 9.35314 30.7377 12.3333ZM4.62496 15.4167V21.5833H6.16663V15.4167H4.62496ZM30.8333 15.4167V21.5833H32.375V15.4167H30.8333ZM11.9633 24.3352L13.5975 21.7205C15.0668 22.641 16.7661 23.1278 18.5 23.125C20.2338 23.1278 21.9331 22.641 23.4025 21.7205L25.0366 24.3352C23.0776 25.5626 20.8118 26.2119 18.5 26.2083C16.1882 26.212 13.9223 25.5627 11.9633 24.3352Z" fill="#5523D2"/>
</g>
</svg>
