<svg width="31" height="31" viewBox="0 0 31 31" fill="none" xmlns="http://www.w3.org/2000/svg">
<g id="solar:logout-2-outline">
<g id="Group">
<path id="Vector" d="M19.3038 1.6145C17.5381 1.6145 16.1134 1.6145 14.9935 1.76563C13.831 1.92063 12.852 2.25646 12.0744 3.03275C11.3975 3.71088 11.054 4.544 10.8744 5.52309C10.7 6.47504 10.6665 7.63884 10.6587 9.03642C10.6573 9.29335 10.7581 9.5403 10.9388 9.72294C11.1195 9.90559 11.3654 10.009 11.6223 10.0103C11.8792 10.0117 12.1262 9.91096 12.3088 9.73025C12.4915 9.54954 12.5948 9.30368 12.5962 9.04675C12.604 7.63496 12.6401 6.63392 12.7796 5.87313C12.9152 5.14204 13.131 4.71709 13.4448 4.40321C13.8026 4.04542 14.3051 3.81292 15.2532 3.68504C16.2284 3.55459 17.5213 3.552 19.3749 3.552H20.6665C22.5214 3.552 23.8143 3.55459 24.7895 3.68504C25.7376 3.81292 26.2388 4.04671 26.5979 4.40321C26.9544 4.761 27.1869 5.26217 27.3147 6.21154C27.4465 7.18546 27.4478 8.47971 27.4478 10.3333V20.6666C27.4478 22.5201 27.4465 23.8131 27.3147 24.7896C27.1869 25.7377 26.9544 26.2388 26.5966 26.5966C26.2388 26.9544 25.7376 27.1869 24.7895 27.3148C23.8143 27.4453 22.5214 27.4478 20.6665 27.4478H19.3749C17.5213 27.4478 16.2284 27.4453 15.2519 27.3148C14.3051 27.1869 13.8026 26.9531 13.4448 26.5966C13.131 26.2815 12.9152 25.8578 12.7796 25.1267C12.6401 24.3659 12.604 23.3649 12.5962 21.9531C12.5955 21.8259 12.5698 21.7 12.5205 21.5828C12.4712 21.4655 12.3992 21.3591 12.3088 21.2696C12.2184 21.1801 12.1112 21.1093 11.9934 21.0613C11.8756 21.0132 11.7495 20.9888 11.6223 20.9895C11.4951 20.9902 11.3692 21.0159 11.252 21.0652C11.1347 21.1145 11.0283 21.1865 10.9388 21.2769C10.8493 21.3673 10.7785 21.4745 10.7305 21.5923C10.6824 21.7101 10.658 21.8362 10.6587 21.9634C10.6665 23.361 10.7 24.5248 10.8744 25.4768C11.0552 26.4558 11.3975 27.289 12.0757 27.9671C12.852 28.7447 13.8323 29.0779 14.9948 29.2355C16.1134 29.3853 17.5381 29.3853 19.3038 29.3853H20.7376C22.5046 29.3853 23.928 29.3853 25.0479 29.2355C26.2104 29.0779 27.1895 28.7447 27.967 27.9671C28.7446 27.1895 29.0779 26.2104 29.2355 25.0479C29.3853 23.928 29.3853 22.5033 29.3853 20.7376V10.2622C29.3853 8.4965 29.3853 7.07179 29.2355 5.95192C29.0792 4.78942 28.7446 3.81034 27.967 3.03275C27.1895 2.25517 26.2104 1.92192 25.0479 1.76563C23.928 1.6145 22.5033 1.6145 20.7376 1.6145H19.3038Z" fill="#909090"/>
<path id="Vector_2" d="M19.3749 14.5312C19.6318 14.5312 19.8782 14.6333 20.0599 14.815C20.2416 14.9966 20.3437 15.2431 20.3437 15.5C20.3437 15.7569 20.2416 16.0033 20.0599 16.185C19.8782 16.3667 19.6318 16.4687 19.3749 16.4687H5.20145L7.73441 18.6387C7.92967 18.8059 8.05053 19.0438 8.07039 19.3001C8.09026 19.5564 8.0075 19.81 7.84032 20.0053C7.67315 20.2006 7.43525 20.3214 7.17897 20.3413C6.92268 20.3612 6.66901 20.2784 6.47374 20.1112L1.95291 16.2362C1.84656 16.1453 1.76117 16.0324 1.70263 15.9053C1.64408 15.7782 1.61377 15.6399 1.61377 15.5C1.61377 15.36 1.64408 15.2218 1.70263 15.0947C1.76117 14.9676 1.84656 14.8547 1.95291 14.7637L6.47374 10.8887C6.57043 10.806 6.68247 10.743 6.80347 10.7036C6.92447 10.6641 7.05207 10.6488 7.17897 10.6587C7.30587 10.6685 7.42959 10.7032 7.54306 10.7609C7.65654 10.8185 7.75755 10.898 7.84032 10.9946C7.9231 11.0913 7.98602 11.2034 8.0255 11.3244C8.06497 11.4454 8.08023 11.573 8.07039 11.6999C8.06056 11.8268 8.02582 11.9505 7.96818 12.064C7.91053 12.1774 7.83109 12.2785 7.73441 12.3612L5.20274 14.5312H19.3749Z" fill="#909090"/>
</g>
</g>
</svg>
