<svg width="31" height="31" viewBox="0 0 31 31" fill="none" xmlns="http://www.w3.org/2000/svg">
<g id="solar:logout-2-outline">
<g id="Group">
<path id="Vector" d="M19.304 1.61456C17.5382 1.61456 16.1135 1.61456 14.9937 1.76569C13.8312 1.92069 12.8521 2.25652 12.0745 3.03281C11.3977 3.71094 11.0541 4.54406 10.8745 5.52315C10.7002 6.4751 10.6666 7.6389 10.6588 9.03648C10.6575 9.29341 10.7582 9.54036 10.9389 9.723C11.1196 9.90565 11.3655 10.009 11.6224 10.0104C11.8793 10.0118 12.1263 9.91102 12.3089 9.73031C12.4916 9.5496 12.595 9.30374 12.5963 9.04681C12.6041 7.63502 12.6402 6.63398 12.7797 5.87319C12.9154 5.1421 13.1311 4.71715 13.445 4.40327C13.8027 4.04548 14.3052 3.81298 15.2533 3.6851C16.2285 3.55465 17.5215 3.55206 19.375 3.55206H20.6667C22.5215 3.55206 23.8145 3.55465 24.7897 3.6851C25.7377 3.81298 26.2389 4.04677 26.598 4.40327C26.9545 4.76106 27.187 5.26223 27.3149 6.2116C27.4466 7.18552 27.4479 8.47977 27.4479 10.3333V20.6666C27.4479 22.5202 27.4466 23.8131 27.3149 24.7896C27.187 25.7377 26.9545 26.2389 26.5967 26.5967C26.2389 26.9545 25.7377 27.187 24.7897 27.3149C23.8145 27.4453 22.5215 27.4479 20.6667 27.4479H19.375C17.5215 27.4479 16.2285 27.4453 15.252 27.3149C14.3052 27.187 13.8027 26.9532 13.445 26.5967C13.1311 26.2815 12.9154 25.8579 12.7797 25.1268C12.6402 24.366 12.6041 23.3649 12.5963 21.9531C12.5956 21.8259 12.5699 21.7001 12.5206 21.5828C12.4713 21.4655 12.3994 21.3591 12.3089 21.2697C12.2185 21.1802 12.1113 21.1094 11.9935 21.0613C11.8757 21.0133 11.7496 20.9889 11.6224 20.9896C11.4952 20.9902 11.3694 21.016 11.2521 21.0653C11.1348 21.1146 11.0284 21.1865 10.9389 21.277C10.8494 21.3674 10.7786 21.4746 10.7306 21.5924C10.6825 21.7102 10.6581 21.8363 10.6588 21.9635C10.6666 23.3611 10.7002 24.5249 10.8745 25.4768C11.0554 26.4559 11.3977 27.289 12.0758 27.9671C12.8521 28.7447 13.8325 29.078 14.995 29.2356C16.1135 29.3854 17.5382 29.3854 19.304 29.3854H20.7377C22.5047 29.3854 23.9281 29.3854 25.048 29.2356C26.2105 29.078 27.1896 28.7447 27.9672 27.9671C28.7447 27.1896 29.078 26.2105 29.2356 25.048C29.3854 23.9281 29.3854 22.5034 29.3854 20.7377V10.2623C29.3854 8.49656 29.3854 7.07185 29.2356 5.95198C29.0793 4.78948 28.7447 3.8104 27.9672 3.03281C27.1896 2.25523 26.2105 1.92198 25.048 1.76569C23.9281 1.61456 22.5034 1.61456 20.7377 1.61456H19.304Z" fill="#5523D2"/>
<path id="Vector_2" d="M19.375 14.5312C19.632 14.5312 19.8784 14.6333 20.06 14.815C20.2417 14.9966 20.3438 15.2431 20.3438 15.5C20.3438 15.7569 20.2417 16.0033 20.06 16.185C19.8784 16.3667 19.632 16.4687 19.375 16.4687H5.20157L7.73453 18.6387C7.92979 18.8059 8.05065 19.0438 8.07051 19.3001C8.09038 19.5564 8.00762 19.81 7.84044 20.0053C7.67327 20.2006 7.43537 20.3214 7.17909 20.3413C6.92281 20.3612 6.66913 20.2784 6.47386 20.1112L1.95303 16.2362C1.84668 16.1453 1.7613 16.0324 1.70275 15.9053C1.64421 15.7782 1.61389 15.6399 1.61389 15.5C1.61389 15.36 1.64421 15.2218 1.70275 15.0947C1.7613 14.9676 1.84668 14.8547 1.95303 14.7637L6.47386 10.8887C6.57055 10.806 6.68259 10.743 6.80359 10.7036C6.9246 10.6641 7.05219 10.6488 7.17909 10.6587C7.30599 10.6685 7.42971 10.7032 7.54318 10.7609C7.65666 10.8185 7.75767 10.898 7.84044 10.9946C7.92322 11.0913 7.98614 11.2034 8.02562 11.3244C8.0651 11.4454 8.08035 11.573 8.07051 11.6999C8.06068 11.8268 8.02595 11.9505 7.9683 12.064C7.91065 12.1774 7.83121 12.2785 7.73453 12.3612L5.20286 14.5312H19.375Z" fill="#5523D2"/>
</g>
</g>
</svg>
