<svg width="123" height="32" viewBox="0 0 123 32" fill="none" xmlns="http://www.w3.org/2000/svg">
<g id="sendit Logo 2 1" clip-path="url(#clip0_16_4114)">
<g id="Mask group">
<mask id="mask0_16_4114" style="mask-type:luminance" maskUnits="userSpaceOnUse" x="0" y="0" width="123" height="32">
<g id="Group">
<path id="Vector" d="M122.839 0H0V32H122.839V0Z" fill="white"/>
</g>
</mask>
<g mask="url(#mask0_16_4114)">
<g id="Group_2">
<path id="Vector_2" fill-rule="evenodd" clip-rule="evenodd" d="M18.0242 16C18.0242 7.16569 24.9352 0 33.4556 0C39.8943 0 45.406 4.09775 47.7196 9.90692L47.9535 10.4941L47.4731 10.8885C45.9786 12.1156 45.0135 14.0465 45.0135 16.136C45.0135 18.2289 45.9441 20.0982 47.4001 21.3255L47.8762 21.7269L47.6339 22.3115C45.2739 28.0052 39.8146 32 33.4556 32C24.9352 32 18.0242 24.8343 18.0242 16ZM33.4556 1.68421C25.8323 1.68421 19.6485 8.09585 19.6485 16C19.6485 23.9041 25.8323 30.3158 33.4556 30.3158C38.9344 30.3158 43.6709 27.0003 45.8994 22.198C44.3562 20.6752 43.3891 18.5222 43.3891 16.136C43.3891 13.7426 44.3933 11.5294 45.9843 9.99585C43.791 5.08871 39.0055 1.68421 33.4556 1.68421Z" fill="#FAC800"/>
</g>
</g>
</g>
<path id="Vector_3" fill-rule="evenodd" clip-rule="evenodd" d="M4.44189 10.7401C4.44189 10.275 4.80551 9.89798 5.25406 9.89798H14.769C15.2176 9.89798 15.5812 10.275 15.5812 10.7401C15.5812 11.2052 15.2176 11.5822 14.769 11.5822H5.25406C4.80551 11.5822 4.44189 11.2052 4.44189 10.7401Z" fill="#FAC800"/>
<path id="Vector_4" fill-rule="evenodd" clip-rule="evenodd" d="M4.44189 21.2664C4.44189 20.8013 4.80551 20.4243 5.25406 20.4243H14.769C15.2176 20.4243 15.5812 20.8013 15.5812 21.2664C15.5812 21.7315 15.2176 22.1085 14.769 22.1085H5.25406C4.80551 22.1085 4.44189 21.7315 4.44189 21.2664Z" fill="#FAC800"/>
<path id="Vector_5" fill-rule="evenodd" clip-rule="evenodd" d="M9.62744 26.5263C9.62744 26.0612 9.99106 25.6842 10.4396 25.6842H16.8246C17.2731 25.6842 17.6367 26.0612 17.6367 26.5263C17.6367 26.9914 17.2731 27.3684 16.8246 27.3684H10.4396C9.99106 27.3684 9.62744 26.9914 9.62744 26.5263Z" fill="#FAC800"/>
<g id="Mask group_2">
<mask id="mask1_16_4114" style="mask-type:luminance" maskUnits="userSpaceOnUse" x="0" y="0" width="123" height="32">
<g id="Group_3">
<path id="Vector_6" d="M122.839 0H0V32H122.839V0Z" fill="white"/>
</g>
</mask>
<g mask="url(#mask1_16_4114)">
<g id="Group_4">
<path id="Vector_7" fill-rule="evenodd" clip-rule="evenodd" d="M0 16C0 15.5349 0.363624 15.1579 0.812177 15.1579H13.957C14.4055 15.1579 14.7691 15.5349 14.7691 16C14.7691 16.4651 14.4055 16.8421 13.957 16.8421H0.812177C0.363624 16.8421 0 16.4651 0 16Z" fill="#FAC800"/>
</g>
</g>
</g>
<path id="Vector_8" fill-rule="evenodd" clip-rule="evenodd" d="M9.62744 5.47368C9.62744 5.0086 9.99106 4.63158 10.4396 4.63158H16.8246C17.2731 4.63158 17.6367 5.0086 17.6367 5.47368C17.6367 5.93876 17.2731 6.31579 16.8246 6.31579H10.4396C9.99106 6.31579 9.62744 5.93876 9.62744 5.47368Z" fill="#FAC800"/>
<g id="Mask group_3">
<mask id="mask2_16_4114" style="mask-type:luminance" maskUnits="userSpaceOnUse" x="0" y="0" width="123" height="32">
<g id="Group_5">
<path id="Vector_9" d="M122.839 0H0V32H122.839V0Z" fill="white"/>
</g>
</mask>
<g mask="url(#mask2_16_4114)">
<g id="Group_6">
<path id="Vector_10" d="M115.935 24.7449H119.952V10.5004H122.839V7.28745H119.952V1.21133H115.935V7.28745H113.143V10.5004H115.935V24.7514V24.7449ZM87.2404 15.9676C87.2404 13.234 89.1397 10.6235 92.4259 10.6235C93.8691 10.6235 95.1561 11.1935 96.0744 12.1522C96.9928 13.0721 97.5801 14.3806 97.5801 15.9028C97.6426 17.4316 97.0865 18.7984 96.1369 19.783C95.1873 20.7676 93.8691 21.37 92.3947 21.37C89.2959 21.37 87.2404 18.9538 87.2404 15.9935V15.9611V15.9676ZM101.353 1.21133H97.3364V9.5417C96.7242 8.52469 94.9124 6.74332 91.6887 6.74332C87.1155 6.74332 83.2233 10.3385 83.2233 16C83.2233 21.0915 86.5657 25.2891 91.7512 25.2891C95.1873 25.2891 96.7804 23.5401 97.5176 22.2381V24.7514H101.353V1.21133ZM63.9247 24.7514H67.9419V15.1125C67.9419 12.664 68.9227 10.6883 71.7778 10.6623C74.6017 10.6623 75.4264 12.664 75.4264 15.2745V24.7514H79.4435V14.2186C79.4435 11.1352 78.4002 6.77571 72.9086 6.74332C69.9036 6.71093 68.3979 8.23968 67.6607 9.60648C67.692 8.77733 67.692 8.04534 67.692 7.28097H63.9185V24.7449L63.9247 24.7514ZM46.6191 14.2251C46.769 12.5085 48.3996 10.2802 51.3734 10.2802C54.316 10.2478 56.0091 12.5733 56.159 14.2251H46.6191ZM60.12 17.4057C60.4573 14.3547 59.6889 11.6146 57.6335 9.41862C56.0716 7.73441 53.86 6.7498 51.3422 6.7498C46.2505 6.7498 42.5082 11.1093 42.5082 16.0713C42.5082 21.0332 46.2192 25.2955 51.4047 25.2955C53.154 25.2955 54.8096 24.7903 56.2215 23.7668C57.6335 22.7822 58.8267 21.3182 59.6264 19.3749H55.4843C54.7159 20.8065 53.3976 21.7263 51.4359 21.7263C49.1368 21.7587 46.744 20.1976 46.5566 17.3992H60.1137L60.12 17.4057ZM39.347 11.9968C39.0096 7.79919 35.6359 6.7498 33.3618 6.7498C30.1069 6.7498 27.3205 8.88097 27.3205 12.3142C27.3517 14.8275 29.1885 16.1296 31.4626 16.8615C34.5614 17.9757 35.8171 18.3903 35.8171 19.8866C35.8484 21.0656 34.7738 21.9206 33.518 21.9206C32.7496 21.9206 31.1877 21.5385 31.0315 19.6599H27.0144C27.3205 23.8899 30.8503 25.2891 33.4556 25.2891C36.9854 25.2891 39.8967 23.0024 39.8343 19.4073C39.803 15.6502 36.8917 14.8275 34.1865 14.0632C32.5934 13.5838 31.3626 12.9814 31.3314 11.8672C31.3314 11.0057 31.9749 10.1182 33.3244 10.1182C34.8925 10.1182 35.3486 11.0704 35.3798 11.9968H39.3345H39.347Z" fill="#5523D2"/>
</g>
</g>
</g>
<path id="Vector_11" d="M110.156 7.29393H106.139V24.7514H110.156V7.29393Z" fill="#5523D2"/>
<g id="Mask group_4">
<mask id="mask3_16_4114" style="mask-type:luminance" maskUnits="userSpaceOnUse" x="0" y="0" width="123" height="32">
<g id="Group_7">
<path id="Vector_12" d="M122.839 0H0V32H122.839V0Z" fill="white"/>
</g>
</mask>
<g mask="url(#mask3_16_4114)">
<g id="Group_8">
<path id="Vector_13" d="M108.151 4.90365C109.175 4.90365 110.006 4.04211 110.006 2.97977C110.006 1.91742 109.175 1.05588 108.151 1.05588C107.126 1.05588 106.295 1.91742 106.295 2.97977C106.295 4.04211 107.126 4.90365 108.151 4.90365Z" fill="#5523D2"/>
<path id="Vector_14" d="M39.2845 11.9773C38.9471 7.77975 35.5735 6.73036 33.2994 6.73036C30.0507 6.73036 27.258 8.86154 27.258 12.2947C27.2893 14.8081 29.1323 16.1101 31.4001 16.8421C34.4989 17.9563 35.7546 18.3708 35.7546 19.8607C35.7859 21.0397 34.7113 21.8947 33.4556 21.8947C32.6871 21.8947 31.1252 21.5125 30.969 19.634H26.9519C27.258 23.864 30.7879 25.2632 33.3931 25.2632C36.9229 25.2632 39.8343 22.97 39.7718 19.3749C39.7406 15.6243 36.8292 14.7951 34.124 14.0308C32.5309 13.5514 31.3002 12.949 31.2689 11.8348C31.2689 10.9733 31.9124 10.0858 33.2619 10.0858C34.83 10.0858 35.2861 11.0381 35.3173 11.9644H39.272L39.2845 11.9773Z" fill="#5523D2"/>
</g>
</g>
</g>
</g>
<defs>
<clipPath id="clip0_16_4114">
<rect width="123" height="32" fill="white"/>
</clipPath>
</defs>
</svg>
