<svg width="48" height="48" viewBox="0 0 48 48" fill="none" xmlns="http://www.w3.org/2000/svg">
<g id="healthicons:ui-preferences-outline">
<g id="Group">
<path id="Vector" d="M23 22.922C23 22.396 23.474 22 24 22C24.526 22 25 22.396 25 22.922V41C25 41.2652 24.8946 41.5196 24.7071 41.7071C24.5196 41.8946 24.2652 42 24 42C23.7348 42 23.4804 41.8946 23.2929 41.7071C23.1054 41.5196 23 41.2652 23 41V22.922Z" fill="#5523D2"/>
<path id="Vector_2" fill-rule="evenodd" clip-rule="evenodd" d="M20 16C20.0001 15.1131 20.2948 14.2514 20.8378 13.5502C21.3808 12.849 22.1414 12.3481 23 12.126V7C23 6.73478 23.1054 6.48043 23.2929 6.29289C23.4804 6.10536 23.7348 6 24 6C24.2652 6 24.5196 6.10536 24.7071 6.29289C24.8946 6.48043 25 6.73478 25 7V12.126C25.9405 12.3717 26.7594 12.9514 27.3038 13.7567C27.8482 14.562 28.0809 15.5379 27.9584 16.5022C27.836 17.4665 27.3667 18.3533 26.6383 18.997C25.9099 19.6406 24.9721 19.9972 24 20C22.9391 20 21.9217 19.5786 21.1716 18.8284C20.4214 18.0783 20 17.0609 20 16ZM24 18C24.5304 18 25.0391 17.7893 25.4142 17.4142C25.7893 17.0391 26 16.5304 26 16C26 15.4696 25.7893 14.9609 25.4142 14.5858C25.0391 14.2107 24.5304 14 24 14C23.4696 14 22.9609 14.2107 22.5858 14.5858C22.2107 14.9609 22 15.4696 22 16C22 16.5304 22.2107 17.0391 22.5858 17.4142C22.9609 17.7893 23.4696 18 24 18ZM16 32C15.9998 32.7484 15.7897 33.4818 15.3934 34.1168C14.9972 34.7517 14.4307 35.2628 13.7585 35.5918C13.0862 35.9208 12.3352 36.0546 11.5906 35.978C10.8461 35.9014 10.138 35.6175 9.54687 35.1585C8.9557 34.6995 8.50517 34.0838 8.2465 33.3815C7.98782 32.6792 7.93138 31.9184 8.08359 31.1856C8.2358 30.4528 8.59056 29.7774 9.10753 29.2361C9.62449 28.6949 10.2829 28.3096 11.008 28.124C11.0028 28.0829 11.0001 28.0415 11 28V7C11 6.73478 11.1054 6.48043 11.2929 6.29289C11.4804 6.10536 11.7348 6 12 6C12.2652 6 12.5196 6.10536 12.7071 6.29289C12.8946 6.48043 13 6.73478 13 7V28C13 28.042 12.997 28.083 12.992 28.124C13.8524 28.3446 14.615 28.8452 15.1596 29.547C15.7042 30.2487 15.9999 31.1117 16 32ZM14 32C14 32.5304 13.7893 33.0391 13.4142 33.4142C13.0391 33.7893 12.5304 34 12 34C11.4696 34 10.9609 33.7893 10.5858 33.4142C10.2107 33.0391 10 32.5304 10 32C10 31.4696 10.2107 30.9609 10.5858 30.5858C10.9609 30.2107 11.4696 30 12 30C12.5304 30 13.0391 30.2107 13.4142 30.5858C13.7893 30.9609 14 31.4696 14 32Z" fill="#5523D2"/>
<path id="Vector_3" d="M36 42C35.7348 42 35.4804 41.8946 35.2929 41.7071C35.1054 41.5196 35 41.2652 35 41V33.922C35 33.396 35.474 33 36 33C36.526 33 37 33.396 37 33.922V41C37 41.2652 36.8946 41.5196 36.7071 41.7071C36.5196 41.8946 36.2652 42 36 42Z" fill="#5523D2"/>
<path id="Vector_4" fill-rule="evenodd" clip-rule="evenodd" d="M36 6C35.7348 6 35.4804 6.10536 35.2929 6.29289C35.1053 6.48043 35 6.73478 35 7V23.126C34.0595 23.3717 33.2406 23.9514 32.6962 24.7567C32.1518 25.562 31.9191 26.5379 32.0415 27.5022C32.164 28.4665 32.6333 29.3533 33.3617 29.997C34.0901 30.6406 35.0279 30.9972 36 31C36.9742 31.001 37.9154 30.6463 38.6467 30.0026C39.378 29.3589 39.8493 28.4705 39.9721 27.504C40.0948 26.5375 39.8606 25.5594 39.3134 24.7533C38.7662 23.9472 37.9436 23.3686 37 23.126V7C37 6.73478 36.8946 6.48043 36.7071 6.29289C36.5195 6.10536 36.2652 6 36 6ZM36 25C35.4695 25 34.9608 25.2107 34.5858 25.5858C34.2107 25.9609 34 26.4696 34 27C34 27.5304 34.2107 28.0391 34.5858 28.4142C34.9608 28.7893 35.4695 29 36 29C36.5304 29 37.0391 28.7893 37.4142 28.4142C37.7893 28.0391 38 27.5304 38 27C38 26.4696 37.7893 25.9609 37.4142 25.5858C37.0391 25.2107 36.5304 25 36 25Z" fill="#5523D2"/>
<path id="Vector_5" d="M11 41C11 41.2652 11.1054 41.5196 11.2929 41.7071C11.4804 41.8946 11.7348 42 12 42C12.2652 42 12.5196 41.8946 12.7071 41.7071C12.8946 41.5196 13 41.2652 13 41V38.922C13 38.396 12.526 38 12 38C11.474 38 11 38.396 11 38.922V41Z" fill="#5523D2"/>
</g>
</g>
</svg>
