<svg width="25" height="24" viewBox="0 0 25 24" fill="none" xmlns="http://www.w3.org/2000/svg">
<g clip-path="url(#clip0_297_697)">
<path d="M12.0527 2C17.5757 2 22.0527 6.477 22.0527 12C22.0527 17.523 17.5757 22 12.0527 22C6.52973 22 2.05273 17.523 2.05273 12C2.05273 6.477 6.52973 2 12.0527 2ZM12.0527 4C9.931 4 7.89617 4.84285 6.39588 6.34315C4.89559 7.84344 4.05273 9.87827 4.05273 12C4.05273 14.1217 4.89559 16.1566 6.39588 17.6569C7.89617 19.1571 9.931 20 12.0527 20C14.1745 20 16.2093 19.1571 17.7096 17.6569C19.2099 16.1566 20.0527 14.1217 20.0527 12C20.0527 9.87827 19.2099 7.84344 17.7096 6.34315C16.2093 4.84285 14.1745 4 12.0527 4ZM12.0527 6C12.2977 6.00003 12.5341 6.08996 12.7171 6.25272C12.9001 6.41547 13.0171 6.63975 13.0457 6.883L13.0527 7V11.586L15.7597 14.293C15.9391 14.473 16.0432 14.7144 16.051 14.9684C16.0587 15.2223 15.9695 15.4697 15.8015 15.6603C15.6335 15.8508 15.3992 15.9703 15.1463 15.9944C14.8933 16.0185 14.6407 15.9454 14.4397 15.79L14.3457 15.707L11.3457 12.707C11.1903 12.5514 11.0905 12.349 11.0617 12.131L11.0527 12V7C11.0527 6.73478 11.1581 6.48043 11.3456 6.29289C11.5332 6.10536 11.7875 6 12.0527 6Z" fill="#FAC800"/>
</g>
<defs>
<clipPath id="clip0_297_697">
<rect width="24" height="24" fill="white" transform="translate(0.0527344)"/>
</clipPath>
</defs>
</svg>
