<svg width="25" height="24" viewBox="0 0 25 24" fill="none" xmlns="http://www.w3.org/2000/svg">
<path d="M18.353 5.71022C18.2604 5.61752 18.1506 5.54397 18.0296 5.49379C17.9086 5.44361 17.7789 5.41778 17.648 5.41778C17.517 5.41778 17.3873 5.44361 17.2663 5.49379C17.1454 5.54397 17.0355 5.61752 16.943 5.71022L12.053 10.5902L7.16296 5.70022C7.07038 5.60764 6.96047 5.5342 6.8395 5.4841C6.71854 5.43399 6.58889 5.4082 6.45796 5.4082C6.32703 5.4082 6.19738 5.43399 6.07641 5.4841C5.95545 5.5342 5.84554 5.60764 5.75296 5.70022C5.66038 5.79281 5.58694 5.90272 5.53683 6.02368C5.48673 6.14464 5.46094 6.27429 5.46094 6.40522C5.46094 6.53615 5.48673 6.6658 5.53683 6.78677C5.58694 6.90773 5.66038 7.01764 5.75296 7.11022L10.643 12.0002L5.75296 16.8902C5.66038 16.9828 5.58694 17.0927 5.53683 17.2137C5.48673 17.3346 5.46094 17.4643 5.46094 17.5952C5.46094 17.7262 5.48673 17.8558 5.53683 17.9768C5.58694 18.0977 5.66038 18.2076 5.75296 18.3002C5.84554 18.3928 5.95545 18.4662 6.07641 18.5163C6.19738 18.5665 6.32703 18.5922 6.45796 18.5922C6.58889 18.5922 6.71854 18.5665 6.8395 18.5163C6.96047 18.4662 7.07038 18.3928 7.16296 18.3002L12.053 13.4102L16.943 18.3002C17.0355 18.3928 17.1455 18.4662 17.2664 18.5163C17.3874 18.5665 17.517 18.5922 17.648 18.5922C17.7789 18.5922 17.9085 18.5665 18.0295 18.5163C18.1505 18.4662 18.2604 18.3928 18.353 18.3002C18.4455 18.2076 18.519 18.0977 18.5691 17.9768C18.6192 17.8558 18.645 17.7262 18.645 17.5952C18.645 17.4643 18.6192 17.3346 18.5691 17.2137C18.519 17.0927 18.4455 16.9828 18.353 16.8902L13.463 12.0002L18.353 7.11022C18.733 6.73022 18.733 6.09022 18.353 5.71022Z" fill="#ED4020"/>
</svg>
