<svg width="20" height="20" viewBox="0 0 20 20" fill="none" xmlns="http://www.w3.org/2000/svg">
<g id="fluent:wallet-16-regular">
<path id="Vector" d="M13.125 10C12.9592 10 12.8003 10.0658 12.6831 10.1831C12.5658 10.3003 12.5 10.4592 12.5 10.625C12.5 10.7908 12.5658 10.9497 12.6831 11.0669C12.8003 11.1842 12.9592 11.25 13.125 11.25H14.375C14.5408 11.25 14.6997 11.1842 14.8169 11.0669C14.9342 10.9497 15 10.7908 15 10.625C15 10.4592 14.9342 10.3003 14.8169 10.1831C14.6997 10.0658 14.5408 10 14.375 10H13.125ZM4.375 2.5C3.87772 2.5 3.40081 2.69754 3.04917 3.04917C2.69754 3.40081 2.5 3.87772 2.5 4.375V14.375C2.5 15.2038 2.82924 15.9987 3.41529 16.5847C4.00134 17.1708 4.7962 17.5 5.625 17.5H15C15.663 17.5 16.2989 17.2366 16.7678 16.7678C17.2366 16.2989 17.5 15.663 17.5 15V7.5C17.5 7.06117 17.3845 6.63007 17.165 6.25004C16.9456 5.87 16.63 5.55442 16.25 5.335V5C16.25 4.33696 15.9866 3.70107 15.5178 3.23223C15.0489 2.76339 14.413 2.5 13.75 2.5H4.375ZM4.375 3.75H13.75C14.0815 3.75 14.3995 3.8817 14.6339 4.11612C14.8683 4.35054 15 4.66848 15 5H4.375C4.20924 5 4.05027 4.93415 3.93306 4.81694C3.81585 4.69973 3.75 4.54076 3.75 4.375C3.75 4.20924 3.81585 4.05027 3.93306 3.93306C4.05027 3.81585 4.20924 3.75 4.375 3.75ZM4.375 6.25H15C15.3315 6.25 15.6495 6.3817 15.8839 6.61612C16.1183 6.85054 16.25 7.16848 16.25 7.5V15C16.25 15.3315 16.1183 15.6495 15.8839 15.8839C15.6495 16.1183 15.3315 16.25 15 16.25H5.625C5.12772 16.25 4.65081 16.0525 4.29917 15.7008C3.94754 15.3492 3.75 14.8723 3.75 14.375V6.14375C3.945 6.2125 4.15625 6.25 4.375 6.25Z" fill="#6B7280"/>
</g>
</svg>
