<svg width="62" height="62" viewBox="0 0 62 62" fill="none" xmlns="http://www.w3.org/2000/svg">
<g id="clarity:world-line" clip-path="url(#clip0_21_207)">
<path id="Vector" d="M45.7077 31C45.7005 28.6842 45.4523 26.3755 44.9671 24.1111H51.1671C50.8478 23.1666 50.4622 22.2458 50.0132 21.3556H44.2438C43.1592 17.7321 41.477 14.3153 39.2666 11.2461C37.8543 10.6523 36.3818 10.2134 34.8749 9.93722C37.9031 13.1909 40.1889 17.0632 41.5743 21.2867H32.2916V9.64444H29.7082V21.3039H20.4254C21.8137 17.0728 24.1055 13.1943 27.1421 9.93722C25.6417 10.2088 24.175 10.6419 22.7677 11.2289C20.5485 14.2852 18.8547 17.6902 17.756 21.3039H11.9521C11.495 22.2104 11.1036 23.1485 10.781 24.1111H17.0327C16.5475 26.3755 16.2993 28.6842 16.2921 31C16.2969 33.533 16.5857 36.0575 17.1532 38.5261H11.0566C11.4129 39.4915 11.8388 40.4297 12.331 41.3333H17.8938C18.9481 44.6328 20.5112 47.7473 22.5266 50.5644C23.9697 51.1834 25.4774 51.6398 27.0216 51.925C24.2108 48.859 22.0491 45.2563 20.6666 41.3333H29.7255V52.2522H32.3088V41.3333H41.3332C39.946 45.2579 37.7784 48.8609 34.961 51.925C36.5124 51.6299 38.026 51.162 39.4732 50.53C41.4854 47.7234 43.0484 44.6207 44.106 41.3333H49.6171C50.1071 40.4464 50.533 39.5255 50.8916 38.5778H44.7777C45.3722 36.095 45.6842 33.5529 45.7077 31ZM29.7082 38.5261H19.8227C18.6102 33.7863 18.557 28.8242 19.6677 24.0594H29.7082V38.5261ZM42.1771 38.5261H32.2916V24.1111H42.3321C42.8269 26.3737 43.0694 28.684 43.0554 31C43.0695 33.5351 42.7745 36.0624 42.1771 38.5261Z" fill="#FCB450"/>
<path id="Vector_2" d="M30.9999 3.44444C25.5499 3.44444 20.2223 5.06055 15.6909 8.08839C11.1594 11.1162 7.6275 15.4198 5.54189 20.4549C3.45628 25.4901 2.91058 31.0306 3.97382 36.3758C5.03706 41.7211 7.66147 46.631 11.5152 50.4847C15.3689 54.3384 20.2788 56.9628 25.6241 58.0261C30.9693 59.0893 36.5098 58.5436 41.545 56.458C46.5801 54.3724 50.8837 50.8405 53.9115 46.309C56.9394 41.7776 58.5555 36.45 58.5555 31C58.5555 23.6918 55.6523 16.6829 50.4846 11.5153C45.317 6.34761 38.3081 3.44444 30.9999 3.44444ZM30.9999 55.1111C26.2312 55.1111 21.5695 53.697 17.6045 51.0477C13.6394 48.3983 10.5491 44.6327 8.72414 40.2269C6.89923 35.8212 6.42175 30.9733 7.35208 26.2962C8.28241 21.6191 10.5788 17.3229 13.9508 13.9509C17.3228 10.5789 21.619 8.28251 26.2961 7.35218C30.9732 6.42185 35.8211 6.89933 40.2268 8.72424C44.6326 10.5492 48.3982 13.6395 51.0476 17.6046C53.6969 21.5696 55.111 26.2313 55.111 31C55.111 37.3947 52.5707 43.5274 48.049 48.0491C43.5273 52.5708 37.3946 55.1111 30.9999 55.1111Z" fill="#FCB450"/>
</g>
<defs>
<clipPath id="clip0_21_207">
<rect width="62" height="62" fill="white"/>
</clipPath>
</defs>
</svg>
